<?xml version="1.0" encoding="UTF-8" standalone="no"?>
<!-- Created with Inkscape (http://www.inkscape.org/) -->

<svg
   width="18"
   height="19.775"
   viewBox="0 0 4.7625 5.2321347"
   version="1.1"
   id="svg5"
   inkscape:version="1.1.1 (3bf5ae0d25, 2021-09-20)"
   sodipodi:docname="arrow.svg"
   xmlns:inkscape="http://www.inkscape.org/namespaces/inkscape"
   xmlns:sodipodi="http://sodipodi.sourceforge.net/DTD/sodipodi-0.dtd"
   xmlns="http://www.w3.org/2000/svg"
   xmlns:svg="http://www.w3.org/2000/svg">
  <sodipodi:namedview
     id="namedview7"
     pagecolor="#ffffff"
     bordercolor="#666666"
     borderopacity="1.0"
     inkscape:pageshadow="2"
     inkscape:pageopacity="0.0"
     inkscape:pagecheckerboard="true"
     inkscape:document-units="mm"
     showgrid="false"
     inkscape:zoom="2.9647588"
     inkscape:cx="124.46206"
     inkscape:cy="18.719904"
     inkscape:window-width="1920"
     inkscape:window-height="1017"
     inkscape:window-x="-8"
     inkscape:window-y="-8"
     inkscape:window-maximized="1"
     inkscape:current-layer="layer1"
     units="px"
     width="18px"
     height="8.077mm" />
  <defs
     id="defs2" />
  <style
     id="style4">
    @import url('https://fonts.googleapis.com/css2?family=Caveat:wght@400..700=Roboto:ital,wght@0,100;0,300;0,400;0,500;0,700;0,900;1,100;1,300;1,400;1,500;1,700;1,900=swap');
  </style>
  <g
     inkscape:label="Warstwa 1"
     inkscape:groupmode="layer"
     id="layer1">
    <path
       d="M 3.9851248,4.1688777 C 3.8416465,4.0623216 3.6894214,3.9524852 3.6094454,3.907183 3.4095571,3.7930344 3.3760586,3.5129967 3.4621963,3.5010397 c 0.034111,-0.00474 0.1474943,0.054438 0.2785255,0.1327171 0.3021117,0.1804822 0.7657581,0.4835748 0.9558462,0.7800858 0.043211,0.067407 0.06947,0.1337183 0.065545,0.1930311 -0.00299,0.045425 -0.028491,0.07877 -0.084472,0.095724 C 4.2729908,4.8580724 3.9170548,5.0281209 3.6267465,5.21779 3.6020066,5.2315474 3.5795439,5.2351117 3.558983,5.2300806 3.4903815,5.2133194 3.4303534,5.0701686 3.4112332,5.0094455 3.3837044,4.9220297 3.3940143,4.8705564 3.4641691,4.822036 3.6023023,4.7265162 3.760547,4.6561771 3.9194359,4.5878927 2.7757398,4.5142366 1.8343639,4.0278725 1.1608043,3.2925578 0.41560754,2.4790552 -8.9808045e-4,1.3612133 1.4540179e-6,0.16152615 4.008686e-5,0.09282229 0.00589775,0.05425485 0.04170577,0.02547735 0.07403917,-5.0989495e-4 0.11469176,-0.00223833 0.18599103,0.0014708 c 0.11052108,0.00576456 0.17197982,0.02681409 0.21266235,0.0939759 0.0347761,0.05744242 0.0434729,0.14120982 0.0519242,0.28025255 0.002476,0.04102 0.006306,0.081989 0.009035,0.12301921 C 0.52655812,1.50612 0.92324827,2.4357855 1.5848313,3.1081703 2.1834745,3.7166021 2.9996435,4.1145698 3.9851253,4.1688759 Z"
       id="path2"
       style="fill:#fecb01;fill-opacity:1;stroke-width:0.0102192" />
  </g>
</svg>
